<svg width="214" height="64" viewBox="0 0 214 64" fill="none" xmlns="http://www.w3.org/2000/svg">
<path d="M74.8761 54.8224H64.5636V25.7315H74.9613C77.8874 25.7315 80.4064 26.3139 82.5181 27.4787C84.6299 28.634 86.2539 30.2959 87.3903 32.4645C88.5361 34.633 89.109 37.2277 89.109 40.2486C89.109 43.2789 88.5361 45.883 87.3903 48.0611C86.2539 50.2391 84.6204 51.9105 82.4897 53.0753C80.3685 54.24 77.8306 54.8224 74.8761 54.8224ZM70.7141 49.5525H74.6204C76.4386 49.5525 77.9679 49.2306 79.2085 48.5866C80.4585 47.9332 81.396 46.9247 82.021 45.5611C82.6554 44.1879 82.9727 42.4171 82.9727 40.2486C82.9727 38.0989 82.6554 36.3423 82.021 34.9787C81.396 33.615 80.4632 32.6112 79.2227 31.9673C77.9821 31.3234 76.4528 31.0014 74.6346 31.0014H70.7141V49.5525ZM103.495 55.2486C101.25 55.2486 99.3185 54.794 97.6992 53.8849C96.0894 52.9664 94.8488 51.669 93.9776 49.9929C93.1064 48.3073 92.6708 46.3139 92.6708 44.0128C92.6708 41.7684 93.1064 39.7987 93.9776 38.1037C94.8488 36.4086 96.0752 35.0876 97.6566 34.1406C99.2475 33.1936 101.113 32.7201 103.253 32.7201C104.693 32.7201 106.033 32.9522 107.273 33.4162C108.523 33.8707 109.612 34.5573 110.54 35.4758C111.478 36.3944 112.207 37.5497 112.728 38.9417C113.248 40.3243 113.509 41.9436 113.509 43.7997V45.4616H95.0856V41.7116H107.813C107.813 40.8404 107.623 40.0686 107.245 39.3963C106.866 38.7239 106.34 38.1984 105.668 37.8196C105.005 37.4313 104.233 37.2372 103.353 37.2372C102.434 37.2372 101.62 37.4503 100.909 37.8764C100.209 38.2931 99.6594 38.8565 99.2617 39.5667C98.864 40.2675 98.6604 41.0487 98.6509 41.9105V45.4758C98.6509 46.5554 98.8498 47.4881 99.2475 48.2741C99.6547 49.0601 100.228 49.6662 100.966 50.0923C101.705 50.5184 102.581 50.7315 103.594 50.7315C104.266 50.7315 104.882 50.6368 105.441 50.4474C105.999 50.258 106.478 49.9739 106.875 49.5951C107.273 49.2164 107.576 48.7523 107.784 48.2031L113.381 48.5724C113.097 49.9171 112.515 51.0914 111.634 52.0951C110.763 53.0895 109.636 53.866 108.253 54.4247C106.88 54.9739 105.294 55.2486 103.495 55.2486ZM126.829 54.8224V25.7315H132.98V38.5582H133.363L143.832 25.7315H151.204L140.409 38.7571L151.332 54.8224H143.974L136.005 42.8622L132.98 46.5554V54.8224H126.829ZM160.515 55.2344C159.123 55.2344 157.883 54.9929 156.794 54.5099C155.705 54.0175 154.843 53.2931 154.208 52.3366C153.583 51.3707 153.271 50.1681 153.271 48.7287C153.271 47.5165 153.493 46.4986 153.939 45.6747C154.384 44.8508 154.99 44.1879 155.757 43.6861C156.524 43.1842 157.395 42.8054 158.37 42.5497C159.355 42.294 160.387 42.1141 161.467 42.0099C162.736 41.8773 163.759 41.7542 164.535 41.6406C165.312 41.5175 165.875 41.3376 166.225 41.1008C166.576 40.8641 166.751 40.5137 166.751 40.0497V39.9645C166.751 39.0648 166.467 38.3688 165.899 37.8764C165.34 37.384 164.545 37.1378 163.512 37.1378C162.423 37.1378 161.557 37.3792 160.913 37.8622C160.269 38.3357 159.843 38.9323 159.635 39.652L154.038 39.1974C154.322 37.8717 154.881 36.7258 155.714 35.7599C156.547 34.7845 157.622 34.0364 158.939 33.5156C160.264 32.9853 161.798 32.7201 163.541 32.7201C164.753 32.7201 165.913 32.8622 167.021 33.1463C168.138 33.4304 169.128 33.8707 169.99 34.4673C170.861 35.0639 171.547 35.8309 172.049 36.7684C172.551 37.6965 172.802 38.8092 172.802 40.1065V54.8224H167.064V51.7969H166.893C166.543 52.4787 166.074 53.08 165.487 53.6008C164.9 54.1122 164.194 54.5147 163.37 54.8082C162.547 55.0923 161.595 55.2344 160.515 55.2344ZM162.248 51.0582C163.138 51.0582 163.924 50.883 164.606 50.5326C165.288 50.1728 165.823 49.6898 166.211 49.0838C166.6 48.4777 166.794 47.7912 166.794 47.0241V44.7088C166.604 44.8319 166.344 44.9455 166.012 45.0497C165.69 45.1444 165.326 45.2343 164.919 45.3196C164.511 45.3953 164.104 45.4664 163.697 45.5326C163.29 45.5895 162.921 45.6415 162.589 45.6889C161.879 45.7931 161.259 45.9588 160.728 46.1861C160.198 46.4133 159.786 46.7211 159.493 47.1094C159.199 47.4881 159.052 47.9616 159.052 48.5298C159.052 49.3537 159.35 49.9834 159.947 50.419C160.553 50.8451 161.32 51.0582 162.248 51.0582ZM195.65 39.2258L190.11 39.5667C190.016 39.0933 189.812 38.6671 189.5 38.2883C189.187 37.9001 188.775 37.5923 188.264 37.365C187.762 37.1283 187.161 37.0099 186.46 37.0099C185.522 37.0099 184.732 37.2088 184.088 37.6065C183.444 37.9948 183.122 38.5156 183.122 39.169C183.122 39.6898 183.33 40.1302 183.747 40.49C184.163 40.8499 184.878 41.1387 185.892 41.3565L189.841 42.152C191.962 42.5876 193.543 43.2883 194.585 44.2542C195.627 45.2201 196.147 46.4891 196.147 48.0611C196.147 49.491 195.726 50.7457 194.883 51.8253C194.05 52.9048 192.904 53.7476 191.446 54.3537C189.997 54.9503 188.325 55.2486 186.431 55.2486C183.543 55.2486 181.242 54.6472 179.528 53.4446C177.824 52.2325 176.824 50.5847 176.531 48.5014L182.483 48.1889C182.663 49.0696 183.098 49.7419 183.789 50.2059C184.481 50.6605 185.366 50.8878 186.446 50.8878C187.506 50.8878 188.359 50.6842 189.002 50.277C189.656 49.8603 189.987 49.3253 189.997 48.6719C189.987 48.1226 189.755 47.6728 189.301 47.3224C188.846 46.9626 188.145 46.6879 187.199 46.4986L183.42 45.7457C181.289 45.3196 179.703 44.5809 178.662 43.5298C177.629 42.4787 177.113 41.1387 177.113 39.5099C177.113 38.1084 177.492 36.901 178.25 35.8878C179.017 34.8745 180.092 34.0933 181.474 33.544C182.866 32.9948 184.495 32.7201 186.36 32.7201C189.116 32.7201 191.285 33.3025 192.866 34.4673C194.457 35.6321 195.385 37.2183 195.65 39.2258ZM211.563 33.0042V37.5497H198.424V33.0042H211.563ZM201.407 27.777H207.458V48.1179C207.458 48.6766 207.543 49.1122 207.713 49.4247C207.884 49.7277 208.121 49.9408 208.424 50.0639C208.736 50.187 209.096 50.2486 209.503 50.2486C209.787 50.2486 210.071 50.2249 210.355 50.1775C210.64 50.1207 210.857 50.0781 211.009 50.0497L211.961 54.5525C211.658 54.6472 211.231 54.7561 210.682 54.8792C210.133 55.0118 209.465 55.0923 208.679 55.1207C207.221 55.1775 205.943 54.9834 204.844 54.5383C203.755 54.0933 202.908 53.402 202.301 52.4645C201.695 51.527 201.397 50.3433 201.407 48.9133V27.777Z" fill="#F76B2A"/>
<path d="M12.1239 10.0867C12.0217 9.22307 11.6069 8.55261 10.8796 8.07534C10.1523 7.59807 9.2603 7.35943 8.20348 7.35943C7.43075 7.35943 6.75462 7.48443 6.17507 7.73443C5.60121 7.98443 5.15234 8.32818 4.82848 8.76568C4.5103 9.20318 4.35121 9.70034 4.35121 10.2572C4.35121 10.7231 4.462 11.1236 4.68359 11.4589C4.91087 11.7884 5.20064 12.064 5.55291 12.2856C5.90518 12.5015 6.2745 12.6805 6.66087 12.8225C7.04723 12.9589 7.40234 13.0697 7.72621 13.1549L9.49893 13.6322C9.95348 13.7515 10.4592 13.9162 11.016 14.1265C11.5785 14.3367 12.1154 14.6236 12.6268 14.9873C13.1438 15.3452 13.57 15.8055 13.9052 16.368C14.2404 16.9305 14.408 17.6208 14.408 18.439C14.408 19.3822 14.1609 20.2344 13.6665 20.9958C13.1779 21.7572 12.462 22.3623 11.5188 22.8111C10.5813 23.26 9.44212 23.4844 8.10121 23.4844C6.85121 23.4844 5.76882 23.2827 4.85405 22.8793C3.94496 22.4759 3.22905 21.9134 2.70632 21.1918C2.18928 20.4702 1.89666 19.6322 1.82848 18.6776H4.0103C4.06712 19.3367 4.28871 19.8822 4.67507 20.314C5.06712 20.7401 5.56143 21.0583 6.15803 21.2685C6.7603 21.4731 7.40803 21.5753 8.10121 21.5753C8.90803 21.5753 9.63246 21.4447 10.2745 21.1833C10.9165 20.9162 11.4251 20.5469 11.8001 20.0753C12.1751 19.5981 12.3626 19.0412 12.3626 18.4049C12.3626 17.8253 12.2006 17.3537 11.8768 16.9901C11.5529 16.6265 11.1268 16.331 10.5984 16.1037C10.07 15.8765 9.49893 15.6776 8.8853 15.5072L6.73757 14.8935C5.37393 14.5015 4.29439 13.9418 3.49893 13.2145C2.70348 12.4873 2.30575 11.5356 2.30575 10.3594C2.30575 9.38216 2.56996 8.52988 3.09837 7.80261C3.63246 7.06966 4.34837 6.50148 5.24609 6.09807C6.1495 5.68898 7.15803 5.48443 8.27166 5.48443C9.39666 5.48443 10.3967 5.68613 11.2717 6.08954C12.1467 6.48727 12.8398 7.03272 13.3512 7.72591C13.8683 8.41909 14.141 9.20602 14.1694 10.0867H12.1239ZM17.6104 28.0867V10.0867H19.5536V12.1662H19.7923C19.94 11.939 20.1445 11.6492 20.4059 11.2969C20.6729 10.939 21.0536 10.6208 21.5479 10.3424C22.0479 10.0583 22.7241 9.91625 23.5763 9.91625C24.6786 9.91625 25.6502 10.1918 26.4911 10.743C27.332 11.2941 27.9883 12.0753 28.4599 13.0867C28.9315 14.0981 29.1673 15.2912 29.1673 16.6662C29.1673 18.0526 28.9315 19.2543 28.4599 20.2714C27.9883 21.2827 27.3349 22.0668 26.4996 22.6236C25.6644 23.1748 24.7013 23.4503 23.6104 23.4503C22.7695 23.4503 22.0962 23.3111 21.5906 23.0327C21.0849 22.7486 20.6957 22.4276 20.4229 22.0697C20.1502 21.706 19.94 21.4049 19.7923 21.1662H19.6218V28.0867H17.6104ZM19.5877 16.6322C19.5877 17.6208 19.7326 18.493 20.0224 19.2486C20.3121 19.9986 20.7354 20.5867 21.2923 21.0128C21.8491 21.4333 22.5309 21.6435 23.3377 21.6435C24.1786 21.6435 24.8803 21.4219 25.4428 20.9787C26.011 20.5299 26.4371 19.9276 26.7212 19.1719C27.011 18.4106 27.1559 17.564 27.1559 16.6322C27.1559 15.7117 27.0138 14.8822 26.7298 14.1435C26.4513 13.3992 26.0281 12.8111 25.4599 12.3793C24.8974 11.9418 24.19 11.7231 23.3377 11.7231C22.5195 11.7231 21.832 11.9305 21.2752 12.3452C20.7184 12.7543 20.2979 13.3282 20.0138 14.0668C19.7298 14.7998 19.5877 15.6549 19.5877 16.6322ZM37.5536 23.4503C36.3718 23.4503 35.3349 23.1691 34.4428 22.6066C33.5565 22.0441 32.8633 21.2572 32.3633 20.2458C31.869 19.2344 31.6218 18.0526 31.6218 16.7003C31.6218 15.3367 31.869 14.1464 32.3633 13.1293C32.8633 12.1123 33.5565 11.3225 34.4428 10.76C35.3349 10.1975 36.3718 9.91625 37.5536 9.91625C38.7354 9.91625 39.7695 10.1975 40.6559 10.76C41.5479 11.3225 42.2411 12.1123 42.7354 13.1293C43.2354 14.1464 43.4854 15.3367 43.4854 16.7003C43.4854 18.0526 43.2354 19.2344 42.7354 20.2458C42.2411 21.2572 41.5479 22.0441 40.6559 22.6066C39.7695 23.1691 38.7354 23.4503 37.5536 23.4503ZM37.5536 21.6435C38.4513 21.6435 39.19 21.4134 39.7695 20.9532C40.3491 20.493 40.7781 19.8878 41.0565 19.1378C41.3349 18.3878 41.4741 17.5753 41.4741 16.7003C41.4741 15.8253 41.3349 15.01 41.0565 14.2543C40.7781 13.4986 40.3491 12.8878 39.7695 12.4219C39.19 11.956 38.4513 11.7231 37.5536 11.7231C36.6559 11.7231 35.9173 11.956 35.3377 12.4219C34.7582 12.8878 34.3292 13.4986 34.0508 14.2543C33.7724 15.01 33.6332 15.8253 33.6332 16.7003C33.6332 17.5753 33.7724 18.3878 34.0508 19.1378C34.3292 19.8878 34.7582 20.493 35.3377 20.9532C35.9173 21.4134 36.6559 21.6435 37.5536 21.6435ZM46.5558 23.1776V10.0867H48.4989V12.064H48.6353C48.8739 11.4162 49.3058 10.8907 49.9308 10.4873C50.5558 10.0839 51.2603 9.88216 52.0444 9.88216C52.1921 9.88216 52.3768 9.885 52.5984 9.89068C52.82 9.89636 52.9876 9.90488 53.1012 9.91625V11.9617C53.033 11.9447 52.8768 11.9191 52.6325 11.885C52.3938 11.8452 52.141 11.8253 51.8739 11.8253C51.2376 11.8253 50.6694 11.9589 50.1694 12.2259C49.6751 12.4873 49.283 12.8509 48.9933 13.3168C48.7092 13.777 48.5671 14.3026 48.5671 14.8935V23.1776H46.5558ZM61.9989 10.0867V11.7912H55.2148V10.0867H61.9989ZM57.1921 6.95034H59.2035V19.4276C59.2035 19.9958 59.2859 20.4219 59.4506 20.706C59.6211 20.9844 59.837 21.1719 60.0984 21.2685C60.3654 21.3594 60.6467 21.4049 60.9421 21.4049C61.1637 21.4049 61.3455 21.3935 61.4876 21.3708C61.6296 21.3424 61.7433 21.3197 61.8285 21.3026L62.2376 23.1094C62.1012 23.1606 61.9109 23.2117 61.6665 23.2628C61.4222 23.3197 61.1126 23.3481 60.7376 23.3481C60.1694 23.3481 59.6126 23.2259 59.0671 22.9816C58.5273 22.7373 58.0785 22.3651 57.7205 21.8651C57.3683 21.3651 57.1921 20.7344 57.1921 19.9731V6.95034ZM74.0629 13.0185L72.256 13.5299C72.1424 13.2287 71.9748 12.9361 71.7532 12.652C71.5373 12.3623 71.2418 12.1236 70.8668 11.9361C70.4918 11.7486 70.0117 11.6549 69.4265 11.6549C68.6254 11.6549 67.9577 11.8395 67.4237 12.2089C66.8952 12.5725 66.631 13.0356 66.631 13.5981C66.631 14.0981 66.8129 14.493 67.1765 14.7827C67.5401 15.0725 68.1083 15.314 68.881 15.5072L70.8242 15.9844C71.9947 16.2685 72.8668 16.7032 73.4407 17.2884C74.0146 17.868 74.3015 18.6151 74.3015 19.5299C74.3015 20.2799 74.0856 20.9503 73.6538 21.5412C73.2276 22.1322 72.631 22.5981 71.864 22.939C71.0969 23.2799 70.2049 23.4503 69.1879 23.4503C67.8526 23.4503 66.7475 23.1606 65.8725 22.581C64.9975 22.0015 64.4435 21.1549 64.2106 20.0412L66.1197 19.564C66.3015 20.2685 66.6452 20.7969 67.1509 21.1492C67.6623 21.5015 68.3299 21.6776 69.1538 21.6776C70.0913 21.6776 70.8356 21.4787 71.3867 21.081C71.9435 20.6776 72.2219 20.1947 72.2219 19.6322C72.2219 19.1776 72.0629 18.7969 71.7447 18.4901C71.4265 18.1776 70.9379 17.9447 70.2788 17.7912L68.0969 17.2799C66.8981 16.9958 66.0174 16.5555 65.4549 15.9589C64.8981 15.3566 64.6197 14.6037 64.6197 13.7003C64.6197 12.9617 64.8271 12.3083 65.2418 11.7401C65.6623 11.1719 66.2333 10.7259 66.9549 10.402C67.6822 10.0782 68.506 9.91625 69.4265 9.91625C70.7219 9.91625 71.739 10.2003 72.4776 10.7685C73.2219 11.3367 73.7504 12.0867 74.0629 13.0185ZM82.6474 23.4503C81.4201 23.4503 80.3633 23.1606 79.4769 22.581C78.5906 22.0015 77.9087 21.2032 77.4315 20.1861C76.9542 19.1691 76.7156 18.0072 76.7156 16.7003C76.7156 15.3708 76.9599 14.1975 77.4485 13.1805C77.9428 12.1577 78.6303 11.3594 79.511 10.7856C80.3974 10.206 81.4315 9.91625 82.6133 9.91625C83.5337 9.91625 84.3633 10.0867 85.1019 10.4276C85.8406 10.7685 86.4457 11.2458 86.9173 11.8594C87.3888 12.4731 87.6815 13.189 87.7951 14.0072H85.7837C85.6303 13.4106 85.2894 12.8822 84.761 12.4219C84.2383 11.956 83.5337 11.7231 82.6474 11.7231C81.8633 11.7231 81.1758 11.9276 80.5849 12.3367C79.9996 12.7401 79.5423 13.3111 79.2127 14.0498C78.8888 14.7827 78.7269 15.6435 78.7269 16.6322C78.7269 17.6435 78.886 18.5242 79.2042 19.2742C79.5281 20.0242 79.9826 20.6066 80.5678 21.0214C81.1587 21.4361 81.8519 21.6435 82.6474 21.6435C83.1701 21.6435 83.6445 21.5526 84.0707 21.3708C84.4968 21.189 84.8576 20.9276 85.1531 20.5867C85.4485 20.2458 85.6587 19.8367 85.7837 19.3594H87.7951C87.6815 20.1322 87.4002 20.8282 86.9513 21.4475C86.5082 22.0611 85.9201 22.5498 85.1871 22.9134C84.4599 23.2714 83.6133 23.4503 82.6474 23.4503ZM92.7468 15.3026V23.1776H90.7354V5.72307H92.7468V12.1322H92.9173C93.2241 11.456 93.6843 10.9191 94.2979 10.5214C94.9173 10.118 95.7411 9.91625 96.7695 9.91625C97.6616 9.91625 98.4428 10.0952 99.1133 10.4532C99.7837 10.8055 100.304 11.3481 100.673 12.081C101.048 12.8083 101.235 13.7344 101.235 14.8594V23.1776H99.2241V14.9958C99.2241 13.956 98.9542 13.152 98.4144 12.5839C97.8803 12.01 97.1388 11.7231 96.19 11.7231C95.5309 11.7231 94.94 11.8623 94.4173 12.1407C93.9002 12.4191 93.4911 12.8253 93.19 13.3594C92.8945 13.8935 92.7468 14.5412 92.7468 15.3026ZM110.233 23.4503C109.051 23.4503 108.015 23.1691 107.123 22.6066C106.236 22.0441 105.543 21.2572 105.043 20.2458C104.549 19.2344 104.301 18.0526 104.301 16.7003C104.301 15.3367 104.549 14.1464 105.043 13.1293C105.543 12.1123 106.236 11.3225 107.123 10.76C108.015 10.1975 109.051 9.91625 110.233 9.91625C111.415 9.91625 112.449 10.1975 113.336 10.76C114.228 11.3225 114.921 12.1123 115.415 13.1293C115.915 14.1464 116.165 15.3367 116.165 16.7003C116.165 18.0526 115.915 19.2344 115.415 20.2458C114.921 21.2572 114.228 22.0441 113.336 22.6066C112.449 23.1691 111.415 23.4503 110.233 23.4503ZM110.233 21.6435C111.131 21.6435 111.87 21.4134 112.449 20.9532C113.029 20.493 113.458 19.8878 113.736 19.1378C114.015 18.3878 114.154 17.5753 114.154 16.7003C114.154 15.8253 114.015 15.01 113.736 14.2543C113.458 13.4986 113.029 12.8878 112.449 12.4219C111.87 11.956 111.131 11.7231 110.233 11.7231C109.336 11.7231 108.597 11.956 108.017 12.4219C107.438 12.8878 107.009 13.4986 106.73 14.2543C106.452 15.01 106.313 15.8253 106.313 16.7003C106.313 17.5753 106.452 18.3878 106.73 19.1378C107.009 19.8878 107.438 20.493 108.017 20.9532C108.597 21.4134 109.336 21.6435 110.233 21.6435ZM124.554 23.4503C123.372 23.4503 122.335 23.1691 121.443 22.6066C120.556 22.0441 119.863 21.2572 119.363 20.2458C118.869 19.2344 118.622 18.0526 118.622 16.7003C118.622 15.3367 118.869 14.1464 119.363 13.1293C119.863 12.1123 120.556 11.3225 121.443 10.76C122.335 10.1975 123.372 9.91625 124.554 9.91625C125.735 9.91625 126.77 10.1975 127.656 10.76C128.548 11.3225 129.241 12.1123 129.735 13.1293C130.235 14.1464 130.485 15.3367 130.485 16.7003C130.485 18.0526 130.235 19.2344 129.735 20.2458C129.241 21.2572 128.548 22.0441 127.656 22.6066C126.77 23.1691 125.735 23.4503 124.554 23.4503ZM124.554 21.6435C125.451 21.6435 126.19 21.4134 126.77 20.9532C127.349 20.493 127.778 19.8878 128.056 19.1378C128.335 18.3878 128.474 17.5753 128.474 16.7003C128.474 15.8253 128.335 15.01 128.056 14.2543C127.778 13.4986 127.349 12.8878 126.77 12.4219C126.19 11.956 125.451 11.7231 124.554 11.7231C123.656 11.7231 122.917 11.956 122.338 12.4219C121.758 12.8878 121.329 13.4986 121.051 14.2543C120.772 15.01 120.633 15.8253 120.633 16.7003C120.633 17.5753 120.772 18.3878 121.051 19.1378C121.329 19.8878 121.758 20.493 122.338 20.9532C122.917 21.4134 123.656 21.6435 124.554 21.6435ZM135.567 5.72307V23.1776H133.556V5.72307H135.567Z" fill="#414141"/>
</svg>
